<?xml version="1.0" encoding="UTF-8" standalone="no"?>
<!-- Created with Inkscape (http://www.inkscape.org/) -->

<svg
   width="51.652172mm"
   height="51.652172mm"
   viewBox="0 0 51.652172 51.652172"
   version="1.1"
   id="svg1"
   xml:space="preserve"
   inkscape:version="1.3 (0e150ed6c4, 2023-07-21)"
   sodipodi:docname="favicon.svg"
   xmlns:inkscape="http://www.inkscape.org/namespaces/inkscape"
   xmlns:sodipodi="http://sodipodi.sourceforge.net/DTD/sodipodi-0.dtd"
   xmlns="http://www.w3.org/2000/svg"
   xmlns:svg="http://www.w3.org/2000/svg"><sodipodi:namedview
     id="namedview1"
     pagecolor="#ffffff"
     bordercolor="#000000"
     borderopacity="0.25"
     inkscape:showpageshadow="2"
     inkscape:pageopacity="0.0"
     inkscape:pagecheckerboard="0"
     inkscape:deskcolor="#d1d1d1"
     inkscape:document-units="mm"
     inkscape:zoom="1.0449705"
     inkscape:cx="197.61323"
     inkscape:cy="86.605312"
     inkscape:window-width="2560"
     inkscape:window-height="1369"
     inkscape:window-x="2552"
     inkscape:window-y="-8"
     inkscape:window-maximized="1"
     inkscape:current-layer="layer1" /><defs
     id="defs1" /><g
     inkscape:label="Layer 1"
     inkscape:groupmode="layer"
     id="layer1"
     transform="translate(-48.107418,-72.414322)"><rect
       style="fill:#4caf50;fill-opacity:1;stroke-width:0.264583"
       id="rect1"
       width="51.652172"
       height="51.652172"
       x="48.107418"
       y="72.414322"
       ry="25.826086"
       rx="12.406651" /><path
       style="fill:#ffffff;fill-opacity:1;stroke-width:0.264583"
       d="m 69.578299,77.883224 c 0,0 -9.5934,3.784158 -9.5934,19.25833 0,14.326546 11.712332,20.669286 16.460435,22.460356 0,0 -5.677554,-11.39074 2.25628,-15.18096 0.487559,-0.23292 1.728938,-0.18989 1.728938,-0.18989 l 56.019818,150.65217 3.79796,-1.77238 -55.829928,-150.46227 1.898977,-3.291564 -3.418157,-0.822883 -1.424233,-3.829606 -4.051151,1.455883 1.379475,3.795703 -0.826073,1.519177 c 0,0 -6.51994,-0.21077 -8.608696,-8.507764 -1.655703,-6.57681 0.209755,-15.084302 0.209755,-15.084302 z"
       id="path1"
       sodipodi:nodetypes="ccssccccccccccsc" /></g></svg>
